<?xml version="1.0" ?><svg viewBox="0 0 44 44" xmlns="http://www.w3.org/2000/svg"><defs><style>.cls-1{fill:#606060;opacity:0;}</style></defs><title/><g data-name="Layer 4" id="Layer_4"><rect class="cls-1" height="44" width="44" x="0.01618"/><rect class="cls-1" height="44" transform="translate(44.03236 44) rotate(-180)" width="44" x="0.01618"/></g><g data-name="Layer 7" id="Layer_7"><path d="M12.12584,23.73562a1.48658,1.48658,0,0,0-.36621,1.35547,10.51466,10.51466,0,0,0,20.51465-.001,1.491,1.491,0,0,0-.36816-1.35449,1.56221,1.56221,0,0,0-1.37793-.48828,59.68611,59.68611,0,0,1-17.02441.001A1.53569,1.53569,0,0,0,12.12584,23.73562Zm9.89062,8.458a9.39743,9.39743,0,0,1-5.46729-1.7406,9.46277,9.46277,0,0,1,10.93408.00037A9.39792,9.39792,0,0,1,22.01646,32.19363Zm8.668-7.85742a.46585.46585,0,0,1,.41406.14648.40066.40066,0,0,1,.10254.36621,9.39686,9.39686,0,0,1-2.835,4.894,10.53715,10.53715,0,0,0-12.69971-.00049,9.39568,9.39568,0,0,1-2.83447-4.89355.40232.40232,0,0,1,.10156-.36621.47177.47177,0,0,1,.3457-.15137.54927.54927,0,0,1,.06836.00488v.001A60.73142,60.73142,0,0,0,30.68443,24.33621ZM4.3231,22.00027a17.69288,17.69288,0,1,0,34.47729-5.576,5.4525,5.4525,0,0,0,1.176-5.8927,4.77974,4.77974,0,0,0-6.26172-2.501l-.51367.2207-.21973-.51367a4.734,4.734,0,0,0-5.79077-2.6499.4913.4913,0,0,0-.05-.02686,17.85534,17.85534,0,0,0-10.251.001.50065.50065,0,0,0-.04785.02576,4.73441,4.73441,0,0,0-5.791,2.65l-.21973.51367-.51367-.2207a4.77974,4.77974,0,0,0-6.26172,2.501A5.45136,5.45136,0,0,0,5.22691,16.4191,17.66118,17.66118,0,0,0,4.3231,22.00027Zm22.83008-15.752a3.62936,3.62936,0,0,1,1.43652-.29687,3.69429,3.69429,0,0,1,3.37988,2.21973l.43652,1.0166a.55272.55272,0,0,0,.71973.29l.43164-.18262.00293-.001.58789-.252a3.67957,3.67957,0,0,1,4.81641,1.92285c1.00293,2.33789-.373,4.98633-3.42383,6.5918a22.81114,22.81114,0,0,1-3.80273,1.51465c-.94531.293-2.11914.58105-2.93652.77051a.38443.38443,0,0,1-.4043-.15918,29.68957,29.68957,0,0,1-3.30273-6.2998C23.98912,10.11844,24.81626,7.25125,27.15318,6.24832ZM25.69932,5.8201c-2.10962,1.54419-2.78076,4.56787-1.64575,7.9165a30.08794,30.08794,0,0,0,3.43262,6.5625,1.47336,1.47336,0,0,0,1.22461.65332,1.54745,1.54745,0,0,0,.33887-.03809c.83594-.19434,2.03711-.48926,3.01465-.792a23.76346,23.76346,0,0,0,3.98828-1.59277,10.33144,10.33144,0,0,0,1.86206-1.24536,16.59346,16.59346,0,1,1-31.79712.00024,10.32208,10.32208,0,0,0,1.86182,1.24512,23.7945,23.7945,0,0,0,3.98828,1.59277c.9707.30078,2.1748.59668,3.01563.792a1.53217,1.53217,0,0,0,.33789.03809,1.47487,1.47487,0,0,0,1.22559-.6543,30.67143,30.67143,0,0,0,3.43262-6.56152c1.134-3.34937.46216-6.37219-1.647-7.9165A16.82937,16.82937,0,0,1,25.69932,5.8201Zm-20.63208,5.145A3.66893,3.66893,0,0,1,9.88365,9.04226l.58887.252.00293.001.43164.18262a.551.551,0,0,0,.71973-.29l.43555-1.0166a3.67957,3.67957,0,0,1,4.81641-1.92285c2.33691,1.002,3.16406,3.87012,2.05957,7.13477a29.59065,29.59065,0,0,1-3.30273,6.29883.38274.38274,0,0,1-.40527.16016c-.82129-.19043-1.99707-.47949-2.93652-.77051a22.709,22.709,0,0,1-3.80273-1.51465C5.44029,15.95144,4.06431,13.303,5.06724,10.96512Z"/></g></svg>