<?xml version="1.0" ?><svg viewBox="0 0 32 32" xmlns="http://www.w3.org/2000/svg"><title/><g data-name="01 Shield" id="_01_Shield"><path d="M1,16.236H31a.5.5,0,0,0,.224-.947L26.46,12.906c-.209-1.491-1.167-7.578-3.074-8.98a1.543,1.543,0,0,0-1.194-.307c-.607.107-1.374.3-2.185.513A19.708,19.708,0,0,1,16,4.9a19.708,19.708,0,0,1-4.007-.771c-.811-.209-1.578-.406-2.185-.513a1.545,1.545,0,0,0-1.194.307c-1.907,1.4-2.865,7.489-3.074,8.98L.776,15.289A.5.5,0,0,0,1,16.236Zm8.206-11.5A.53.53,0,0,1,9.634,4.6c.569.1,1.317.293,2.11.5A20.146,20.146,0,0,0,16,5.9a20.146,20.146,0,0,0,4.256-.8c.793-.205,1.541-.4,2.11-.5a.522.522,0,0,1,.428.129c1.33.977,2.28,5.675,2.631,8H6.575C6.926,10.407,7.876,5.709,9.206,4.732Zm-3.088,9H25.882l3,1.5H3.117Z"/><path d="M22.565,28.4a4.777,4.777,0,1,0-4.5-6.321H13.934a4.724,4.724,0,1,0,.278,1.544,4.661,4.661,0,0,0-.055-.544h3.686a4.661,4.661,0,0,0-.055.544A4.783,4.783,0,0,0,22.565,28.4Zm-13.129-1a3.777,3.777,0,1,1,3.776-3.777A3.782,3.782,0,0,1,9.436,27.4ZM22.565,19.85a3.777,3.777,0,1,1-3.777,3.777A3.781,3.781,0,0,1,22.565,19.85Z"/></g></svg>