<?xml version="1.0" ?><!DOCTYPE svg  PUBLIC '-//W3C//DTD SVG 1.1//EN'  'http://www.w3.org/Graphics/SVG/1.1/DTD/svg11.dtd'><svg enable-background="new 0 0 128 128" height="128px" id="Layer_1" version="1.1" viewBox="0 0 128 128" width="128px" xml:space="preserve" xmlns="http://www.w3.org/2000/svg" xmlns:xlink="http://www.w3.org/1999/xlink"><g><g><g><path d="M64.001,114.043c-1.104,0-2-0.896-2-2V15.689c0-1.104,0.896-2,2-2s2,0.896,2,2v96.354     C66.001,113.146,65.105,114.043,64.001,114.043z"/></g></g><g><path d="M63.976,42.133L46.238,24.395c-0.781-0.781-0.781-2.047,0-2.828s2.047-0.781,2.828,0l14.909,14.91l14.956-14.956    c0.781-0.781,2.047-0.781,2.828,0s0.781,2.047,0,2.828L63.976,42.133z"/><path d="M47.652,106.797c-0.512,0-1.023-0.195-1.414-0.586c-0.781-0.781-0.781-2.047,0-2.828l17.782-17.781l17.739,17.734    c0.781,0.781,0.781,2.047,0,2.828s-2.047,0.781-2.828,0L64.021,91.258l-14.954,14.953    C48.676,106.602,48.164,106.797,47.652,106.797z"/></g></g><g><g><g><path d="M103.462,93.498c-0.396,0-0.796-0.117-1.146-0.361L23.389,37.87c-0.904-0.634-1.124-1.881-0.491-2.786     c0.634-0.904,1.881-1.124,2.786-0.491l78.928,55.267c0.904,0.633,1.124,1.881,0.491,2.785     C104.713,93.201,104.093,93.498,103.462,93.498z"/></g></g><g><path d="M21.13,55.806c-0.953,0-1.797-0.683-1.968-1.652c-0.191-1.088,0.534-2.125,1.622-2.317l20.765-3.661l-3.674-20.827    c-0.191-1.088,0.534-2.125,1.622-2.317c1.091-0.195,2.126,0.534,2.317,1.622l4.369,24.767l-24.704,4.356    C21.361,55.796,21.245,55.806,21.13,55.806z"/><path d="M88.149,102.734c-0.953,0-1.797-0.682-1.968-1.652l-4.368-24.768l24.705-4.357c1.096-0.195,2.126,0.533,2.317,1.621    s-0.534,2.125-1.622,2.318l-20.766,3.662l3.673,20.828c0.191,1.088-0.534,2.125-1.622,2.318    C88.381,102.725,88.265,102.734,88.149,102.734z"/></g></g><g><g><g><path d="M24.534,93.498c-0.631,0-1.251-0.297-1.641-0.854c-0.633-0.904-0.413-2.152,0.491-2.785l78.928-55.267     c0.909-0.633,2.152-0.413,2.786,0.491c0.633,0.905,0.413,2.152-0.491,2.786L25.68,93.137     C25.33,93.381,24.93,93.498,24.534,93.498z"/></g></g><g><path d="M106.868,55.806c-0.115,0-0.231-0.01-0.35-0.03l-24.705-4.356l4.368-24.767c0.191-1.088,1.226-1.816,2.317-1.622    c1.088,0.192,1.813,1.229,1.622,2.317l-3.673,20.827l20.766,3.661c1.088,0.192,1.813,1.229,1.622,2.317    C108.665,55.124,107.821,55.806,106.868,55.806z"/><path d="M39.847,102.734c-0.115,0-0.231-0.01-0.35-0.029c-1.088-0.193-1.813-1.23-1.622-2.318l3.673-20.828l-20.764-3.662    c-1.088-0.193-1.813-1.23-1.622-2.318s1.219-1.816,2.317-1.621l24.703,4.357l-4.368,24.768    C41.644,102.053,40.8,102.734,39.847,102.734z"/></g></g></svg>