<?xml version="1.0" ?><svg enable-background="new 0 0 512 512" id="Layer_2" version="1.0" viewBox="0 0 512 512" xml:space="preserve" xmlns="http://www.w3.org/2000/svg" xmlns:xlink="http://www.w3.org/1999/xlink"><g><path d="   M390.581,448.413l-26.278,8.861l-26.278-8.861c-47.442-15.998-79.387-60.482-79.387-110.549V234.272l105.665-35.91l105.665,35.91   v103.592C469.967,387.931,438.022,432.415,390.581,448.413z" fill="none" stroke="#474747" stroke-linecap="round" stroke-linejoin="round" stroke-miterlimit="10" stroke-width="15"/><g><path d="    M223.157,307.676c-41.334,0-74.842-33.508-74.842-74.842s33.508-74.842,74.842-74.842c24.052,0,45.454,11.346,59.147,28.978" fill="none" stroke="#474747" stroke-linecap="round" stroke-linejoin="round" stroke-miterlimit="10" stroke-width="15"/><line fill="none" stroke="#474747" stroke-linecap="round" stroke-linejoin="round" stroke-miterlimit="10" stroke-width="15" x1="223.157" x2="223.157" y1="108.784" y2="50.721"/><line fill="none" stroke="#474747" stroke-linecap="round" stroke-linejoin="round" stroke-miterlimit="10" stroke-width="15" x1="99.107" x2="41.044" y1="232.834" y2="232.834"/><line fill="none" stroke="#474747" stroke-linecap="round" stroke-linejoin="round" stroke-miterlimit="10" stroke-width="15" x1="135.44" x2="94.383" y1="145.118" y2="104.061"/><line fill="none" stroke="#474747" stroke-linecap="round" stroke-linejoin="round" stroke-miterlimit="10" stroke-width="15" x1="135.44" x2="94.383" y1="320.551" y2="361.607"/><line fill="none" stroke="#474747" stroke-linecap="round" stroke-linejoin="round" stroke-miterlimit="10" stroke-width="15" x1="351.93" x2="310.873" y1="104.061" y2="145.118"/></g></g></svg>