<?xml version="1.0" ?><svg enable-background="new 0 0 512 512" id="Layer_2" version="1.0" viewBox="0 0 512 512" xml:space="preserve" xmlns="http://www.w3.org/2000/svg" xmlns:xlink="http://www.w3.org/1999/xlink"><g><g><path d="    M257.781,278.065c6.917,0.215,12.412,5.885,12.412,12.805v15.3c12.643,52.518,30.149,78.778,103.578,78.778    s83.827-43.334,86.558-74.401c3.89-44.252,23.841-44.252,23.841-44.252v-19.451c0,0-88.016-29.948-183.586-3.706    c-9.028,2.479-27.482,6.296-33.692,7.239h-24.634c-6.211-0.943-24.665-4.76-33.693-7.239    c-95.569-26.242-183.586,3.706-183.586,3.706v19.451c0,0,19.951,0,23.841,44.252c2.731,31.067,13.13,74.401,86.558,74.401    s90.935-26.259,103.578-78.778v-15.3c0-6.92,5.496-12.589,12.412-12.805H257.781z" fill="none" stroke="#474747" stroke-linecap="round" stroke-linejoin="round" stroke-miterlimit="10" stroke-width="15"/><path d="    M35.412,243.803l86.51-111.379c3.59-4.623,9.115-7.327,14.968-7.327h0c10.468,0,18.953,8.486,18.953,18.953v6.688" fill="none" stroke="#474747" stroke-linecap="round" stroke-linejoin="round" stroke-miterlimit="10" stroke-width="15"/><path d="    M473.737,243.803L281.312,128.542c-3.764-2.254-8.069-3.445-12.456-3.445h0c-13.388,0-24.241,10.853-24.241,24.241v1.401" fill="none" stroke="#474747" stroke-linecap="round" stroke-linejoin="round" stroke-miterlimit="10" stroke-width="15"/></g><line fill="none" stroke="#474747" stroke-linecap="round" stroke-linejoin="round" stroke-miterlimit="10" stroke-width="15" x1="80.734" x2="140.407" y1="322.726" y2="263.054"/><line fill="none" stroke="#474747" stroke-linecap="round" stroke-linejoin="round" stroke-miterlimit="10" stroke-width="15" x1="150.404" x2="192.486" y1="325.133" y2="283.051"/><line fill="none" stroke="#474747" stroke-linecap="round" stroke-linejoin="round" stroke-miterlimit="10" stroke-width="15" x1="122.734" x2="125.572" y1="352.803" y2="349.965"/><line fill="none" stroke="#474747" stroke-linecap="round" stroke-linejoin="round" stroke-miterlimit="10" stroke-width="15" x1="432.568" x2="372.895" y1="293.131" y2="352.803"/><line fill="none" stroke="#474747" stroke-linecap="round" stroke-linejoin="round" stroke-miterlimit="10" stroke-width="15" x1="365.685" x2="323.603" y1="287.937" y2="330.019"/><line fill="none" stroke="#474747" stroke-linecap="round" stroke-linejoin="round" stroke-miterlimit="10" stroke-width="15" x1="389.342" x2="386.504" y1="264.28" y2="267.118"/></g></svg>