<?xml version="1.0" encoding="utf-8"?>
<!-- Generator: Adobe Illustrator 26.3.1, SVG Export Plug-In . SVG Version: 6.00 Build 0)  -->
<svg version="1.1" id="Layer_1" xmlns:serif="http://www.serif.com/"
	 xmlns="http://www.w3.org/2000/svg" xmlns:xlink="http://www.w3.org/1999/xlink" x="0px" y="0px" viewBox="0 0 494 495"
	 style="enable-background:new 0 0 494 495;" xml:space="preserve">
<style type="text/css">
	.st0{fill:#030404;}
</style>
<g transform="matrix(1.01619,0,0,1.01619,44,43.8384)">
	<path d="M199.8-35.2c-63.9,0-71.9,0.3-96.9,1.4c-25,1.1-42.1,5.1-57.1,10.9c-15.5,6-28.6,14-41.6,27.1S-17,30.4-23,45.9
		c-5.8,15-9.8,32-10.9,57.1c-1.1,25.1-1.4,33.1-1.4,96.9c0,63.9,0.3,71.9,1.4,96.9c1.1,25,5.1,42.1,10.9,57.1
		c6,15.5,14,28.6,27.1,41.6c13.1,13.1,26.2,21.1,41.6,27.1c15,5.8,32,9.8,57.1,10.9c25.1,1.1,33.1,1.4,96.9,1.4
		c63.9,0,71.9-0.3,96.9-1.4c25-1.1,42.1-5.1,57.1-10.9c15.5-6,28.6-14,41.6-27.1c13.1-13.1,21.1-26.2,27.1-41.6
		c5.8-15,9.8-32,10.9-57.1c1.1-25.1,1.4-33.1,1.4-96.9c0-63.9-0.3-71.9-1.4-96.9c-1.1-25-5.1-42.1-10.9-57.1
		c-6-15.5-14-28.6-27.1-41.6c-13.1-13.1-26.2-21.1-41.6-27.1c-15-5.8-32-9.8-57.1-10.9C271.6-34.9,263.6-35.2,199.8-35.2z
		 M199.8,7.2c62.8,0,70.2,0.2,95,1.4c22.9,1,35.4,4.9,43.7,8.1c11,4.3,18.8,9.4,27,17.6c8.2,8.2,13.3,16.1,17.6,27
		c3.2,8.3,7.1,20.7,8.1,43.7c1.1,24.8,1.4,32.2,1.4,95c0,62.8-0.2,70.2-1.4,95c-1,22.9-4.9,35.4-8.1,43.7c-4.3,11-9.4,18.8-17.6,27
		c-8.2,8.2-16.1,13.3-27,17.6c-8.3,3.2-20.7,7.1-43.7,8.1c-24.8,1.1-32.2,1.4-95,1.4c-62.8,0-70.2-0.2-95-1.4
		c-22.9-1-35.4-4.9-43.7-8.1c-11-4.3-18.8-9.4-27-17.6c-8.2-8.2-13.3-16.1-17.6-27c-3.2-8.3-7.1-20.7-8.1-43.7
		c-1.1-24.8-1.4-32.2-1.4-95c0-62.8,0.2-70.2,1.4-95c1-22.9,4.9-35.4,8.1-43.7c4.3-11,9.4-18.8,17.6-27c8.2-8.2,16.1-13.3,27-17.6
		c8.3-3.2,20.7-7,43.7-8.1C129.5,7.4,137,7.2,199.8,7.2z"/>
	<path class="st0" d="M199.8,278.3c-43.3,0-78.4-35.1-78.4-78.4c0-43.3,35.1-78.4,78.4-78.4c43.3,0,78.4,35.1,78.4,78.4
		C278.1,243.2,243.1,278.3,199.8,278.3z M199.8,79.2C133.1,79.2,79,133.2,79,199.9c0,66.7,54.1,120.7,120.7,120.7
		c66.7,0,120.7-54.1,120.7-120.7C320.5,133.2,266.4,79.2,199.8,79.2z"/>
	<path class="st0" d="M353.5,74.4c0,15.6-12.6,28.2-28.2,28.2c-15.6,0-28.2-12.6-28.2-28.2s12.6-28.2,28.2-28.2
		C340.9,46.2,353.5,58.8,353.5,74.4z"/>
</g>
</svg>
